<?xml version="1.0" encoding="UTF-8" standalone="no"?>
<!-- Created with Inkscape (http://www.inkscape.org/) -->

<svg
   xmlns:dc="http://purl.org/dc/elements/1.1/"
   xmlns:cc="http://creativecommons.org/ns#"
   xmlns:rdf="http://www.w3.org/1999/02/22-rdf-syntax-ns#"
   xmlns:svg="http://www.w3.org/2000/svg"
   xmlns="http://www.w3.org/2000/svg"
   xmlns:sodipodi="http://sodipodi.sourceforge.net/DTD/sodipodi-0.dtd"
   xmlns:inkscape="http://www.inkscape.org/namespaces/inkscape"
   width="60"
   height="380"
   viewBox="0 0 15.875 100.54167"
   version="1.1"
   id="svg8"
   inkscape:version="0.92.2 (5c3e80d, 2017-08-06)"
   sodipodi:docname="drawing-paths.svg">
  <defs
     id="defs2" />
  <sodipodi:namedview
     id="base"
     pagecolor="#ffffff"
     bordercolor="#666666"
     borderopacity="1.0"
     inkscape:pageopacity="0.0"
     inkscape:pageshadow="2"
     inkscape:zoom="1.4142136"
     inkscape:cx="142.31325"
     inkscape:cy="190"
     inkscape:document-units="px"
     inkscape:current-layer="layer1"
     showgrid="true"
     units="px"
     inkscape:pagecheckerboard="true"
     inkscape:window-width="1280"
     inkscape:window-height="747"
     inkscape:window-x="-8"
     inkscape:window-y="-8"
     inkscape:window-maximized="1"
     showguides="false">
    <inkscape:grid
       type="xygrid"
       id="grid18"
       empspacing="15" />
  </sodipodi:namedview>
  <metadata
     id="metadata5">
    <rdf:RDF>
      <cc:Work
         rdf:about="">
        <dc:format>image/svg+xml</dc:format>
        <dc:type
           rdf:resource="http://purl.org/dc/dcmitype/StillImage" />
        <dc:title></dc:title>
      </cc:Work>
    </rdf:RDF>
  </metadata>
  <g
     inkscape:label="Layer 1"
     inkscape:groupmode="layer"
     id="layer1"
     transform="translate(0,-196.45832)">
    <g
       aria-label="A"
       style="font-style:normal;font-weight:normal;font-size:3.52777791px;line-height:1.25;font-family:sans-serif;letter-spacing:0px;word-spacing:0px;fill:#ffffff;fill-opacity:1;stroke:none;stroke-width:0.26458335"
       id="text3711">
      <path
         d="m 13.296367,210.86311 -0.471978,1.27985 h 0.945679 z m -0.19637,-0.34279 h 0.394463 l 0.98013,2.57177 h -0.361735 l -0.234267,-0.65974 h -1.159274 l -0.234267,0.65974 h -0.366902 z"
         style="font-size:3.52777791px;fill:#ffffff;stroke-width:0.26458335"
         id="path45" />
    </g>
    <g
       aria-label="B"
       style="font-style:normal;font-weight:normal;font-size:3.52777767px;line-height:1.25;font-family:sans-serif;letter-spacing:0px;word-spacing:0px;fill:#ffffff;fill-opacity:1;stroke:none;stroke-width:0.26458335"
       id="text3715">
      <path
         d="m 2.5462699,224.86325 v 0.94224 h 0.5581055 q 0.2807753,0 0.415134,-0.11541 0.1360812,-0.11714 0.1360812,-0.35657 0,-0.24116 -0.1360812,-0.35485 -0.1343587,-0.11541 -0.415134,-0.11541 z m 0,-1.05764 v 0.77515 h 0.5150418 q 0.254937,0 0.3789605,-0.0947 0.125746,-0.0965 0.125746,-0.29284 0,-0.19464 -0.125746,-0.29111 -0.1240235,-0.0965 -0.3789605,-0.0965 z m -0.3479546,-0.28594 h 0.8888346 q 0.3979085,0 0.613227,0.16536 0.2153184,0.16537 0.2153184,0.47026 0,0.23599 -0.110243,0.37551 -0.1102431,0.13953 -0.323839,0.17398 0.2566596,0.0551 0.3979085,0.23082 0.1429715,0.17398 0.1429715,0.43581 0,0.34451 -0.2342665,0.53226 -0.2342665,0.18776 -0.6666259,0.18776 H 2.1983153 Z"
         style="fill:#ffffff;stroke-width:0.26458335"
         id="path48" />
    </g>
    <g
       aria-label="C"
       style="font-style:normal;font-weight:normal;font-size:3.52777767px;line-height:1.25;font-family:sans-serif;letter-spacing:0px;word-spacing:0px;fill:#ffffff;fill-opacity:1;stroke:none;stroke-width:0.26458335"
       id="text3719">
      <path
         d="m 14.197092,237.23026 v 0.3669 q -0.1757,-0.16364 -0.375515,-0.2446 -0.198093,-0.081 -0.422024,-0.081 -0.440973,0 -0.675239,0.27044 -0.234267,0.26872 -0.234267,0.77859 0,0.50815 0.234267,0.77859 0.234266,0.26872 0.675239,0.26872 0.223931,0 0.422024,-0.081 0.199815,-0.081 0.375515,-0.2446 v 0.36345 q -0.18259,0.12403 -0.387573,0.18604 -0.203261,0.062 -0.430637,0.062 -0.583944,0 -0.919841,-0.35657 -0.335896,-0.35829 -0.335896,-0.97668 0,-0.62012 0.335896,-0.97668 0.335897,-0.35829 0.919841,-0.35829 0.230821,0 0.434082,0.062 0.204983,0.0603 0.384128,0.18259 z"
         style="fill:#ffffff;stroke-width:0.26458335"
         id="path51" />
    </g>
    <g
       aria-label="D"
       style="font-style:normal;font-weight:normal;font-size:3.52777767px;line-height:1.25;font-family:sans-serif;letter-spacing:0px;word-spacing:0px;fill:#ffffff;fill-opacity:1;stroke:none;stroke-width:0.26458335"
       id="text3723">
      <path
         d="m 1.8992482,251.2419 v 1.99988 h 0.4203016 q 0.5322672,0 0.7785915,-0.24115 0.2480469,-0.24116 0.2480469,-0.76137 0,-0.51676 -0.2480469,-0.7562 Q 2.851817,251.2419 2.3195498,251.2419 Z m -0.3479547,-0.28594 h 0.7148573 q 0.7475857,0 1.0972629,0.31178 0.3496772,0.31006 0.3496772,0.97152 0,0.6649 -0.3513998,0.97668 -0.3513997,0.31179 -1.0955403,0.31179 H 1.5512935 Z"
         style="fill:#ffffff;stroke-width:0.26458335"
         id="path54" />
    </g>
    <g
       aria-label="1"
       style="font-style:normal;font-weight:normal;font-size:2.82222247px;line-height:1.25;font-family:sans-serif;letter-spacing:0px;word-spacing:0px;fill:#00ff00;fill-opacity:1;stroke:none;stroke-width:0.26458335"
       id="text3727">
      <path
         d="m 12.301664,264.83904 h 0.454752 v -1.56959 l -0.494715,0.0992 v -0.25356 l 0.491959,-0.0992 h 0.278364 v 1.82315 h 0.454753 v 0.23426 h -1.185113 z"
         style="fill:#00ff00;stroke-width:0.26458335"
         id="path57" />
    </g>
    <g
       aria-label="2"
       style="font-style:normal;font-weight:normal;font-size:2.82222247px;line-height:1.25;font-family:sans-serif;letter-spacing:0px;word-spacing:0px;fill:#00ff00;fill-opacity:1;stroke:none;stroke-width:0.26458335"
       id="text3731">
      <path
         d="m 2.9920526,269.74324 h 0.971517 v 0.23427 H 2.6571893 v -0.23427 q 0.1584744,-0.16398 0.431326,-0.43959 0.2742296,-0.27699 0.3445096,-0.35691 0.1336697,-0.15021 0.1860352,-0.25356 0.053743,-0.10473 0.053743,-0.20533 0,-0.16399 -0.1157552,-0.26734 -0.1143772,-0.10335 -0.2990343,-0.10335 -0.1309136,0 -0.2769857,0.0455 -0.144694,0.0455 -0.3100586,0.13781 v -0.28112 q 0.1681207,-0.0675 0.3141927,-0.10198 0.1460721,-0.0345 0.2673395,-0.0345 0.3197048,0 0.5098741,0.15985 0.1901693,0.15986 0.1901693,0.42719 0,0.12678 -0.048231,0.24116 -0.046853,0.113 -0.1722548,0.26734 -0.034451,0.04 -0.2191081,0.23151 -0.1846571,0.19017 -0.5208985,0.5333 z"
         style="fill:#00ff00;stroke-width:0.26458335"
         id="path60" />
    </g>
    <g
       style="font-style:normal;font-weight:normal;font-size:10.66666698px;line-height:1.25;font-family:sans-serif;letter-spacing:0px;word-spacing:0px;fill:#000000;fill-opacity:1;stroke:none"
       id="flowRoot3733" />
    <g
       style="font-style:normal;font-weight:normal;font-size:10.66666698px;line-height:1.25;font-family:sans-serif;letter-spacing:0px;word-spacing:0px;fill:#000000;fill-opacity:1;stroke:none"
       id="flowRoot3741" />
    <g
       aria-label="3"
       style="font-style:normal;font-weight:normal;font-size:2.82222247px;line-height:1.25;font-family:sans-serif;letter-spacing:0px;word-spacing:0px;fill:#00ff00;fill-opacity:1;stroke:none;stroke-width:0.26458335"
       id="text3751">
      <path
         d="m 13.059186,274.363 q 0.199815,0.0427 0.311436,0.17777 0.112999,0.13504 0.112999,0.33348 0,0.30455 -0.209461,0.47129 -0.209462,0.16674 -0.595313,0.16674 -0.129536,0 -0.267339,-0.0262 -0.136426,-0.0248 -0.282498,-0.0758 v -0.26872 q 0.115755,0.0675 0.253559,0.10198 0.137804,0.0345 0.28801,0.0345 0.261827,0 0.398253,-0.10336 0.137804,-0.10335 0.137804,-0.30041 0,-0.1819 -0.128158,-0.28387 -0.126779,-0.10336 -0.354156,-0.10336 h -0.239778 v -0.22875 h 0.250803 q 0.205327,0 0.314192,-0.0813 0.108865,-0.0827 0.108865,-0.23702 0,-0.15847 -0.112999,-0.24253 -0.111621,-0.0854 -0.321083,-0.0854 -0.114377,0 -0.24529,0.0248 -0.130914,0.0248 -0.288011,0.0772 v -0.24804 q 0.158475,-0.0441 0.296279,-0.0661 0.139182,-0.022 0.261827,-0.022 0.316949,0 0.501606,0.1447 0.184657,0.14331 0.184657,0.3886 0,0.17088 -0.09784,0.28939 -0.09784,0.11713 -0.278363,0.16261 z"
         style="fill:#00ff00;stroke-width:0.26458335"
         id="path65" />
    </g>
    <g
       aria-label="4"
       style="font-style:normal;font-weight:normal;font-size:2.82222247px;line-height:1.25;font-family:sans-serif;letter-spacing:0px;word-spacing:0px;fill:#ff0000;fill-opacity:1;stroke:none;stroke-width:0.26458335"
       id="text3755">
      <path
         d="m 3.2153672,279.20826 -0.7027995,1.09829 h 0.7027995 z m -0.073036,-0.24254 h 0.3500217 v 1.34083 h 0.2935222 v 0.23151 H 3.4923529 v 0.48507 H 3.2153672 v -0.48507 H 2.2865694 v -0.26871 z"
         style="fill:#ff0000;stroke-width:0.26458335"
         id="path68" />
    </g>
    <g
       aria-label="EN"
       style="font-style:normal;font-weight:normal;font-size:2.82222247px;line-height:1.25;font-family:sans-serif;letter-spacing:0px;word-spacing:0px;fill:#00ff00;fill-opacity:1;stroke:none;stroke-width:0.26458335"
       id="text3759">
      <path
         d="m 10.668195,286.9092 h 1.300868 v 0.23427 h -1.022504 v 0.60909 h 0.979785 v 0.23427 h -0.979785 v 0.74552 h 1.047309 v 0.23426 h -1.325673 z"
         style="fill:#00ff00;stroke-width:0.26458335"
         id="path71" />
      <path
         d="m 12.454133,286.9092 h 0.374826 l 0.912262,1.72117 v -1.72117 h 0.270095 v 2.05741 H 13.63649 l -0.912262,-1.72117 v 1.72117 h -0.270095 z"
         style="fill:#00ff00;stroke-width:0.26458335"
         id="path73" />
    </g>
    <g
       aria-label="KRT"
       transform="scale(0.85196177,1.1737616)"
       style="font-style:normal;font-weight:normal;font-size:7.10527325px;line-height:1.25;font-family:sans-serif;letter-spacing:0px;word-spacing:0px;fill:#ffffff;fill-opacity:1;stroke:none;stroke-width:0.66611934"
       id="text3763">
      <path
         d="m 5.3317126,246.91956 h 0.7008131 v 2.18918 l 2.324479,-2.18918 h 0.9020367 l -2.5708045,2.41469 2.7546812,2.76508 H 8.5200652 l -2.4875395,-2.49447 v 2.49447 H 5.3317126 Z"
         style="fill:#ffffff;stroke-width:0.66611934"
         id="path76" />
      <path
         d="m 12.450863,249.67077 q 0.22551,0.0763 0.437141,0.32613 0.215101,0.24979 0.430202,0.68693 l 0.711221,1.4155 h -0.752853 l -0.66265,-1.32876 q -0.256734,-0.52041 -0.49959,-0.69041 -0.239386,-0.17 -0.655711,-0.17 h -0.763262 v 2.18917 H 9.9945482 v -5.17977 h 1.5820338 q 0.888159,0 1.3253,0.37123 0.437141,0.37122 0.437141,1.1206 0,0.48918 -0.228979,0.81184 -0.225509,0.32265 -0.659181,0.44754 z m -1.755502,-2.17529 v 1.83877 h 0.881221 q 0.506528,0 0.763261,-0.23245 0.260203,-0.23592 0.260203,-0.69041 0,-0.45449 -0.260203,-0.68346 -0.256733,-0.23245 -0.763261,-0.23245 z"
         style="fill:#ffffff;stroke-width:0.66611934"
         id="path78" />
      <path
         d="m 13.703307,246.91956 h 4.381816 v 0.5898 h -1.838767 v 4.58997 h -0.704282 v -4.58997 h -1.838767 z"
         style="fill:#ffffff;stroke-width:0.66611934"
         id="path80" />
    </g>
    <g
       aria-label="VCF"
       transform="scale(0.98637015,1.0138182)"
       style="font-style:normal;font-weight:normal;font-size:5.46760893px;line-height:1.25;font-family:sans-serif;letter-spacing:0px;word-spacing:0px;fill:#ffff00;fill-opacity:1;stroke:none;stroke-width:0.51258832"
       id="text3767">
      <path
         d="m 6.3724076,198.6433 -1.5217467,-3.98591 h 0.5633133 l 1.2627827,3.35585 1.2654525,-3.35585 H 8.5028528 L 6.983776,198.6433 Z"
         style="fill:#ffff00;stroke-width:0.51258832"
         id="path83" />
      <path
         d="m 12.066944,194.96441 v 0.56865 q -0.272313,-0.25363 -0.582002,-0.3791 -0.307019,-0.12548 -0.654084,-0.12548 -0.683451,0 -1.0465344,0.41915 -0.3630834,0.41648 -0.3630834,1.20672 0,0.78757 0.3630834,1.20671 0.3630834,0.41648 1.0465344,0.41648 0.347065,0 0.654084,-0.12548 0.309689,-0.12547 0.582002,-0.3791 v 0.56332 q -0.282992,0.19222 -0.60069,0.28833 -0.315028,0.0961 -0.667433,0.0961 -0.9050384,0 -1.4256359,-0.55264 -0.5205976,-0.5553 -0.5205976,-1.51373 0,-0.96111 0.5205976,-1.51374 0.5205975,-0.55531 1.4256359,-0.55531 0.357744,0 0.672773,0.0961 0.317698,0.0934 0.59535,0.283 z"
         style="fill:#ffff00;stroke-width:0.51258832"
         id="path85" />
      <path
         d="m 12.905239,194.65739 h 2.290629 v 0.45385 h -1.751343 v 1.17468 h 1.580481 v 0.45386 h -1.580481 v 1.90352 h -0.539286 z"
         style="fill:#ffff00;stroke-width:0.51258832"
         id="path87" />
    </g>
  </g>
</svg>
